<svg width="24" height="24" viewBox="0 0 24 24" fill="none" xmlns="http://www.w3.org/2000/svg">
<path fill-rule="evenodd" clip-rule="evenodd" d="M17.7501 2C18.1298 2 18.4436 2.28215 18.4932 2.64823L18.5001 2.75V6.75C18.5001 7.1297 18.2179 7.44349 17.8518 7.49315L17.7501 7.5H14.7501C14.6317 7.5 14.5326 7.58223 14.5067 7.69268L14.5001 7.75V9H17.7501C18.2055 9 18.5477 9.39944 18.4951 9.83756L18.4777 9.9319L17.4777 13.9319C17.4035 14.2287 17.1582 14.4467 16.8629 14.4915L16.7501 14.5H14.5001V20.75C14.5001 21.1297 14.2179 21.4435 13.8518 21.4932L13.7501 21.5H9.75006C9.37037 21.5 9.05657 21.2178 9.00691 20.8518L9.00006 20.75V14.5H6.75006C6.37037 14.5 6.05657 14.2178 6.00691 13.8518L6.00006 13.75V9.75C6.00006 9.3703 6.28221 9.05651 6.64829 9.00685L6.75006 9H9.00006V7.75C9.00006 4.64821 11.4561 2.12006 14.5295 2.00415L14.7501 2H17.7501ZM17.0001 3.5H14.7501C12.4719 3.5 10.6124 5.29251 10.505 7.54408L10.5001 7.75V9.75C10.5001 10.1297 10.2179 10.4435 9.85183 10.4932L9.75006 10.5H7.50006V13H9.75006C10.1298 13 10.4436 13.2822 10.4932 13.6482L10.5001 13.75V20H13.0001V13.75C13.0001 13.3703 13.2822 13.0565 13.6483 13.0068L13.7501 13H16.1641L16.7891 10.5H13.7501C13.3704 10.5 13.0566 10.2178 13.0069 9.85177L13.0001 9.75V7.75C13.0001 6.83183 13.7072 6.07881 14.6065 6.0058L14.7501 6H17.0001V3.5Z" fill="#212121"/>
</svg>
