<svg width="19" height="24" viewBox="0 0 19 24" fill="none" xmlns="http://www.w3.org/2000/svg">
<path fill-rule="evenodd" clip-rule="evenodd" d="M2.64058 16.719C4.0989 16.719 5.2811 17.9012 5.2811 19.3595C5.2811 20.8178 4.0989 22 2.64058 22C1.18226 22 6.10352e-05 20.8178 6.10352e-05 19.3595C6.10352e-05 17.9012 1.18226 16.719 2.64058 16.719ZM16.3595 16.719C17.8179 16.719 19.0001 17.9012 19.0001 19.3595C19.0001 20.8178 17.8179 22 16.3595 22C14.9012 22 13.719 20.8178 13.719 19.3595C13.719 17.9012 14.9012 16.719 16.3595 16.719ZM2.64058 9.85948C4.0989 9.85948 5.2811 11.0417 5.2811 12.5C5.2811 13.9583 4.0989 15.1405 2.64058 15.1405C1.18226 15.1405 6.10352e-05 13.9583 6.10352e-05 12.5C6.10352e-05 11.0417 1.18226 9.85948 2.64058 9.85948ZM9.50006 9.85948C10.9584 9.85948 12.1406 11.0417 12.1406 12.5C12.1406 13.9583 10.9584 15.1405 9.50006 15.1405C8.04174 15.1405 6.85954 13.9583 6.85954 12.5C6.85954 11.0417 8.04174 9.85948 9.50006 9.85948ZM2.64058 3C4.0989 3 5.2811 4.1822 5.2811 5.64052C5.2811 7.09884 4.0989 8.28104 2.64058 8.28104C1.18226 8.28104 6.10352e-05 7.09884 6.10352e-05 5.64052C6.10352e-05 4.1822 1.18226 3 2.64058 3ZM16.3595 3C17.8179 3 19.0001 4.1822 19.0001 5.64052C19.0001 7.09884 17.8179 8.28104 16.3595 8.28104C14.9012 8.28104 13.719 7.09884 13.719 5.64052C13.719 4.1822 14.9012 3 16.3595 3ZM9.50006 3C10.9584 3 12.1406 4.1822 12.1406 5.64052C12.1406 7.09884 10.9584 8.28104 9.50006 8.28104C8.04174 8.28104 6.85954 7.09884 6.85954 5.64052C6.85954 4.1822 8.04174 3 9.50006 3Z" fill="#212121"/>
</svg>
